<svg xmlns="http://www.w3.org/2000/svg" version="1.1" xmlns:xlink="http://www.w3.org/1999/xlink" xmlns:svgjs="http://svgjs.com/svgjs" width="1440" height="560" preserveAspectRatio="none" viewBox="0 0 1440 560"><g mask="url(&quot;#SvgjsMask1000&quot;)" fill="none"><rect width="1440" height="560" x="0" y="0" fill="#0e2a47"></rect><path d="M0,343.243C67.757,349.545,134.838,334.568,196.456,305.692C264.665,273.727,346.628,240.7,370.946,169.405C395.3,98.007,343.01,25.058,316.235,-45.468C294.916,-101.623,267.523,-152.451,230.73,-199.929C191.946,-249.976,156.132,-307.415,96.578,-328.914C35.78,-350.862,-29.418,-328.324,-93.021,-316.802C-164.21,-303.906,-254.761,-316.126,-297.254,-257.572C-340.334,-198.209,-288.949,-115.308,-292.416,-42.043C-295.439,21.849,-338.844,84.589,-316.276,144.438C-293.427,205.031,-229.12,236.743,-174.294,271.206C-119.971,305.353,-63.888,337.3,0,343.243" fill="#0b2239"></path><path d="M1440 865.014C1511.512 879.8140000000001 1586.794 922.245 1653.01 891.4490000000001 1719.474 860.537 1747.231 780.491 1770.901 711.117 1792.96 646.466 1798.232 577.268 1782.92 510.695 1768.384 447.499 1728.423 395.86699999999996 1686.929 346.03499999999997 1644.672 295.288 1601.2649999999999 243.98399999999998 1540.101 219.086 1475.307 192.70999999999998 1403.009 185.926 1335.124 202.82600000000002 1265.629 220.12599999999998 1201.239 258.439 1156.712 314.53 1113.1399999999999 369.418 1086.7060000000001 439.951 1091.374 509.875 1095.6970000000001 574.636 1147.15 622.902 1180.995 678.284 1210.435 726.458 1231.206 780.613 1277.002 813.63 1324.1680000000001 847.635 1383.061 853.23 1440 865.014" fill="#113255"></path></g><defs><mask id="SvgjsMask1000"><rect width="1440" height="560" fill="#ffffff"></rect></mask></defs></svg>